<?xml version="1.0" standalone="no"?>
<!DOCTYPE svg PUBLIC "-//W3C//DTD SVG 20010904//EN"
 "http://www.w3.org/TR/2001/REC-SVG-20010904/DTD/svg10.dtd">
<svg version="1.0" xmlns="http://www.w3.org/2000/svg"
 width="2048.000000pt" height="2048.000000pt" viewBox="0 0 2048.000000 2048.000000"
 preserveAspectRatio="xMidYMid meet">

<g transform="translate(0.000000,2048.000000) scale(0.100000,-0.100000)"
fill="#000000" stroke="none">
<path d="M9905 20473 c-412 -12 -935 -64 -1350 -133 -1921 -322 -3663 -1158
-5135 -2464 -173 -154 -661 -641 -816 -816 -1388 -1562 -2257 -3462 -2519
-5510 -60 -470 -79 -788 -79 -1310 0 -422 8 -604 40 -950 190 -2059 993 -3996
2318 -5590 433 -521 954 -1033 1481 -1455 2503 -2003 5787 -2717 8903 -1935
1855 466 3565 1463 4890 2853 1562 1637 2529 3704 2776 5937 47 421 60 661 60
1140 0 479 -13 720 -60 1140 -253 2278 -1255 4387 -2859 6019 -589 600 -1167
1068 -1855 1503 -1723 1090 -3726 1633 -5795 1571z m2801 -4684 c739 -71 1415
-470 1819 -1074 88 -131 204 -369 255 -525 45 -135 79 -191 233 -383 193 -240
406 -347 628 -317 140 19 226 56 474 199 77 45 174 95 217 111 89 34 205 55
256 45 122 -23 218 -142 268 -330 29 -109 27 -380 -4 -494 -100 -367 -365
-632 -767 -764 -445 -147 -951 -127 -1536 59 -11 4 -40 -28 -98 -106 -158
-212 -369 -411 -596 -560 -66 -44 -128 -85 -138 -92 -17 -12 -17 -24 12 -263
237 -1956 377 -3689 332 -4085 -65 -564 -357 -1036 -889 -1438 -756 -571
-1982 -942 -3487 -1056 -679 -52 -1562 -46 -2111 14 -754 83 -1372 242 -1913
490 -776 356 -1343 922 -1567 1564 -75 215 -99 356 -114 651 -5 116 -19 299
-30 407 -11 109 -23 262 -26 340 l-7 142 -64 98 c-170 259 -260 557 -251 833
3 98 8 127 25 160 45 85 127 144 233 169 58 14 422 16 3198 16 1750 0 3132 4
3132 9 0 4 28 11 63 13 38 3 86 16 122 33 124 57 334 309 434 518 222 466 175
1018 -141 1652 -93 186 -132 251 -221 369 -238 314 -389 684 -437 1066 -13
109 -13 401 0 510 51 410 229 821 495 1140 377 452 916 758 1505 855 220 36
482 45 696 24z"/>
<path d="M12734 14289 c-73 -28 -128 -79 -165 -154 -27 -55 -31 -75 -31 -140
0 -65 4 -85 31 -140 55 -112 158 -175 285 -175 96 0 151 23 221 94 69 69 95
131 95 221 0 90 -26 152 -95 221 -42 43 -75 66 -109 77 -66 23 -168 21 -232
-4z"/>
</g>
</svg>
